mtllib Test1.mtl
# vertices
v -64 -16 -64
v -64 -16 64
v -64 16 64
v -64 16 -64
v 64 16 64
v 64 -16 64
v 64 -16 -64
v 64 16 -64
v 96 0 -48
v 96 0 64
v 96 16 64
v 96 16 -48
v 128 16 64
v 128 0 64
v 128 0 -48
v 128 16 -48

# texture coordinates
vt -0.5 -0.125
vt 0.5 -0.125
vt 0.5 0.125
vt -0.5 0.125
vt -0.5 -0.5
vt 0.5 -0.5
vt 0.5 0.5
vt -0.5 0.5
vt -0.375 -0
vt 0.5 -0
vt -0.375 0.125
vt 1 0.125
vt 0.75 0.125
vt 0.75 -0
vt 1 -0
vt -1 -0.5
vt -0.75 -0.5
vt -0.75 0.375
vt -1 0.375
vt 1 0.375
vt 0.75 0.375
vt 0.75 -0.5
vt 1 -0.5
vt -1 -0
vt -0.75 -0
vt -0.75 0.125
vt -1 0.125
vt 0.375 0.125
vt -0.5 -0
vt 0.375 -0

# normals
vn -1 0 -0
vn 0 0 1
vn 0 -1 -0
vn 0 1 -0
vn 0 0 -1
vn 1 0 -0

o entity0_brush0
usemtl wall
f  1/1/1  2/2/1  3/3/1  4/4/1
usemtl wall
f  5/3/2  3/4/2  2/1/2  6/2/2
usemtl wall
f  6/5/3  2/6/3  1/7/3  7/8/3
usemtl wall
f  8/7/4  4/8/4  3/5/4  5/6/4
usemtl wall
f  7/1/5  1/2/5  4/3/5  8/4/5
usemtl wall
f  8/3/6  5/4/6  6/1/6  7/2/6

o entity0_brush1
usemtl Debugempty
f  9/9/1  10/10/1  11/3/1  12/11/1
usemtl Debugempty
f  13/12/2  11/13/2  10/14/2  14/15/2
usemtl Debugempty
f  14/16/3  10/17/3  9/18/3  15/19/3
usemtl Debugempty
f  16/20/4  12/21/4  11/22/4  13/23/4
usemtl Debugempty
f  15/24/5  9/25/5  12/26/5  16/27/5
usemtl Debugempty
f  16/28/6  13/4/6  14/29/6  15/30/6

